<?xml version="1.0" encoding="utf-8"?>
<!-- Generator: Adobe Illustrator 16.0.0, SVG Export Plug-In . SVG Version: 6.00 Build 0)  -->
<!DOCTYPE svg PUBLIC "-//W3C//DTD SVG 1.1//EN" "http://www.w3.org/Graphics/SVG/1.1/DTD/svg11.dtd">
<svg version="1.1" id="Layer_1" xmlns="http://www.w3.org/2000/svg" xmlns:xlink="http://www.w3.org/1999/xlink" x="0px" y="0px"
	 width="20px" height="20px" viewBox="0 0 20 20" enable-background="new 0 0 20 20" xml:space="preserve">
<path fill="#666766" d="M10.289,19.805l0.118-5.801H3c-1.517,0-2.75-1.233-2.75-2.75v-8c0-1.517,1.233-2.75,2.75-2.75h14
	c1.517,0,2.75,1.233,2.75,2.75v8c0,1.517-1.233,2.75-2.75,2.75h-0.916L10.289,19.805z M3,2.004c-0.689,0-1.25,0.561-1.25,1.25v8
	c0,0.689,0.561,1.25,1.25,1.25h8.938l-0.073,3.602l3.599-3.602H17c0.689,0,1.25-0.561,1.25-1.25v-8c0-0.689-0.561-1.25-1.25-1.25H3z
	"/>
</svg>
