<?xml version="1.0" encoding="utf-8"?>
<!-- Generator: Adobe Illustrator 20.1.0, SVG Export Plug-In . SVG Version: 6.00 Build 0)  -->
<svg version="1.0" id="Layer_1" xmlns="http://www.w3.org/2000/svg" xmlns:xlink="http://www.w3.org/1999/xlink" x="0px" y="0px"
	 viewBox="0 0 26 26" style="enable-background:new 0 0 26 26;" xml:space="preserve">
<style type="text/css">
	.st0{fill:#231F20;}
</style>
<path class="st0" d="M24.7,23.1l-5.3-6c1.5-1.8,2.4-4.1,2.4-6.6c0-5.6-4.6-10.2-10.2-10.2C5.9,0.2,1.3,4.8,1.3,10.5
	s4.6,10.2,10.2,10.2c2.1,0,4-0.6,5.6-1.7l5.3,6c0.3,0.3,0.7,0.5,1.1,0.5c0.3,0,0.7-0.1,1-0.4C25.1,24.7,25.2,23.8,24.7,23.1z
	 M4.3,10.5c0-4,3.2-7.2,7.2-7.2c4,0,7.2,3.2,7.2,7.2c0,4-3.2,7.2-7.2,7.2C7.6,17.7,4.3,14.5,4.3,10.5z"/>
</svg>
